<svg viewBox="0 0 576 576">
    <g>
        <path class="shadow" d=" M 256 64 L 256 64 C 157.617 64 77.576 144.041 77.576 242.424 L 77.576 501.01 C 77.576 542.359 111.218 575.999 152.567 575.999 C 172.605 575.999 190.817 568.083 204.284 555.235 C 217.75 568.086 235.961 576 255.998 576 L 256 576 C 276.038 576 294.251 568.084 307.717 555.236 C 321.184 568.086 339.397 576 359.435 576 C 400.784 576 434.424 542.36 434.424 501.011 L 434.424 242.424 C 434.424 144.041 354.383 64 256 64 Z " fill="rgb(145,70,255)"/>
        <g class="body">
            <path d=" M 320 0 L 320 0 C 221.617 0 141.576 80.041 141.576 178.424 L 141.576 437.01 C 141.576 478.359 175.218 511.999 216.567 511.999 C 236.605 511.999 254.817 504.083 268.284 491.235 C 281.75 504.086 299.961 512 319.998 512 L 320 512 C 340.038 512 358.251 504.084 371.717 491.236 C 385.184 504.086 403.397 512 423.435 512 C 464.784 512 498.424 478.36 498.424 437.011 L 498.424 178.424 C 498.424 80.041 418.383 0 320 0 Z " fill="rgb(145,70,255)"/>
            <path d=" M 320 32 L 320 32 C 233.915 32 163.879 102.036 163.879 188.121 L 163.879 414.384 C 163.879 450.564 193.316 479.999 229.496 479.999 C 247.029 479.999 262.965 473.073 274.748 461.831 C 286.531 473.075 302.466 480 319.998 480 L 320 480 C 337.533 480 353.47 473.074 365.252 461.831 C 377.036 473.075 392.972 480 410.506 480 C 446.686 480 476.121 450.565 476.121 414.385 L 476.121 188.121 C 476.121 102.036 406.085 32 320 32 Z " fill="rgb(255,255,255)"/>
            <g>
                <path d=" M 371.717 155.15 C 365.589 155.15 359.6 157.632 355.255 161.977 C 350.926 166.306 348.444 172.295 348.444 178.423 C 348.444 184.551 350.926 190.556 355.255 194.885 C 359.584 199.214 365.588 201.696 371.717 201.696 C 377.846 201.696 383.85 199.214 388.179 194.885 C 392.508 190.541 394.99 184.552 394.99 178.423 C 394.99 172.294 392.508 166.306 388.179 161.977 C 383.836 157.634 377.845 155.15 371.717 155.15 Z " fill="rgb(144,71,255)"/>
                <path d=" M 268.293 155.15 C 262.165 155.15 256.162 157.632 251.833 161.961 C 247.504 166.305 245.006 172.294 245.006 178.423 C 245.006 184.551 247.504 190.556 251.833 194.885 C 256.162 199.214 262.165 201.696 268.293 201.696 C 274.406 201.696 280.412 199.214 284.739 194.885 C 289.068 190.541 291.55 184.552 291.55 178.423 C 291.55 172.294 289.068 166.306 284.739 161.961 C 280.41 157.634 274.406 155.15 268.293 155.15 Z " fill="rgb(144,71,255)"/>
            </g>
        </g>
    </g>
</svg>