<svg id="twitch-player-logo" xmlns="http://www.w3.org/2000/svg" xmlns:xlink="http://www.w3.org/1999/xlink" style="isolation:isolate" viewBox="870 -798 256 298.667" width="256pt" height="298.667pt">
    <defs>
        <clipPath id="_clipPath_Iy8bwhMMbuP5p81Pf9K81MrjkeNSwgdW">
            <rect x="870" y="-798" width="256" height="298.667"/>
        </clipPath>
    </defs>
    <g clip-path="url(#_clipPath_Iy8bwhMMbuP5p81Pf9K81MrjkeNSwgdW)">
        <rect x="870" y="-798" width="256" height="298.667" fill-opacity="0"/>
        <g>
            <g>
                <path d=" M 1104.667 -659.333 L 1062 -616.667 L 1019.333 -616.667 L 982 -579.333 L 982 -616.667 L 934 -616.667 L 934 -776.667 L 1104.667 -776.667 L 1104.667 -659.333 Z " fill="rgb(255,255,255)"/>
                <g>
                    <g>
                        <path d=" M 923.333 -798 L 870 -744.667 L 870 -552.667 L 934 -552.667 L 934 -499.333 L 987.333 -552.667 L 1030 -552.667 L 1126 -648.667 L 1126 -798 L 923.333 -798 Z  M 1104.667 -659.333 L 1062 -616.667 L 1019.333 -616.667 L 982 -579.333 L 982 -616.667 L 934 -616.667 L 934 -776.667 L 1104.667 -776.667 L 1104.667 -659.333 Z " fill="rgb(145,70,255)"/>
                    </g>
                </g>
            </g>
            <path class="arrow" d=" M 1072.667 -709.359 L 1032.667 -686.265 L 992.667 -663.171 L 992.667 -709.359 L 992.667 -755.547 L 1032.667 -732.453 L 1072.667 -709.359 Z " fill="rgb(145,71,254)">
                <animateTransform
                    id="rotation"
                    attributeName="transform"
                    attributeType="XML"
                    type="rotate"
                    from="0 27 46"
                    to="120 27 46"
                    dur="1s"
                    keyTimes="0;0.5;1"
                    keySplines="0.8 0 0.3 1;0.8 0 0.3 1"
                    calcMode="spline"
                    repeatCount="indefinite"
                />
            </path>
        </g>
    </g>
</svg>