<svg viewBox="870 -798 256 298.667">
    <g>
        <rect x="870" y="-798" width="256" height="298.667" fill-opacity="0"/>
        <path d=" M 1104.667 -659.333 L 1062 -616.667 L 1019.333 -616.667 L 982 -579.333 L 982 -616.667 L 934 -616.667 L 934 -776.667 L 1104.667 -776.667 L 1104.667 -659.333 Z " fill="rgb(255,255,255)"/>
        <path d=" M 923.333 -798 L 870 -744.667 L 870 -552.667 L 934 -552.667 L 934 -499.333 L 987.333 -552.667 L 1030 -552.667 L 1126 -648.667 L 1126 -798 L 923.333 -798 Z  M 1104.667 -659.333 L 1062 -616.667 L 1019.333 -616.667 L 982 -579.333 L 982 -616.667 L 934 -616.667 L 934 -776.667 L 1104.667 -776.667 L 1104.667 -659.333 Z " fill="rgb(145,70,255)"/>
        <path class="arrow" d=" M 1072.667 -709.359 L 1032.667 -686.265 L 992.667 -663.171 L 992.667 -709.359 L 992.667 -755.547 L 1032.667 -732.453 L 1072.667 -709.359 Z " fill="rgb(145,71,254)"/>
    </g>
</svg>